<svg width="160" height="50" viewBox="0 0 160 50" fill="none" xmlns="http://www.w3.org/2000/svg">
<path d="M64.9744 45.4408C63.5129 44.7315 31.1224 25.5409 31.1224 25.5409L51.7022 25.0287C53.5587 24.9105 55.1782 23.9647 56.2843 22.5067L63.8289 11.1579C63.9079 11.0396 63.9869 10.882 63.9869 10.7244V6.82322C63.9869 6.6262 63.9079 6.42917 63.7499 6.27154L57.2718 0.360686C56.9953 0.124252 56.6398 -0.033371 56.2843 0.00603474L16.1121 0.242469C16.1121 0.242469 9.55505 4.38007 8.92304 4.65591C8.21203 4.93175 8.33053 6.50798 9.55505 6.50798C10.2661 6.50798 22.0767 6.50798 22.0767 6.50798L16.0331 17.975L0.193404 20.2606C-0.00409928 20.3394 -0.0831005 20.7334 0.114403 20.8911L3.74846 24.477C3.90646 24.6346 4.06446 24.7528 4.30147 24.7922L9.79205 27.3142C9.95005 27.3536 10.0291 27.5112 9.95005 27.6688L1.37842 43.904C1.33892 44.0222 1.29942 44.101 1.29942 44.2193C1.25992 45.0074 0.983416 48.2386 0.983416 49.0268C0.983416 49.9331 2.87944 50.3665 3.86696 49.6178C4.85448 48.8691 12.5571 43.5888 13.1496 43.0765C13.5446 42.7218 19.3512 35.5894 21.2077 33.4615C21.5237 33.1068 22.0372 32.9886 22.5112 33.1856L49.8457 49.342C50.3592 49.5784 50.9122 49.4996 51.5047 49.4602C54.4277 49.145 62.8019 48.7115 64.4609 48.1992C66.3964 47.5293 66.4359 46.1501 64.9744 45.4408ZM37.324 10.0151L40.484 5.48343C40.6025 5.32581 40.8395 5.36521 40.879 5.56224L41.59 9.93628C41.59 10.0545 41.7085 10.1333 41.827 10.1333H49.0556C49.2927 10.1333 49.3717 10.4486 49.1347 10.5668L42.6566 13.6404C42.5776 13.6798 42.4986 13.7586 42.5381 13.8768L43.1701 18.6843C43.2096 18.8814 43.0121 18.9996 42.8146 18.9208L37.9955 16.0442C37.9165 16.0048 37.8375 16.0048 37.798 16.0442L31.4384 18.9208C31.2409 18.9996 31.0434 18.7632 31.1619 18.6055L34.3219 14.0739C34.4009 13.9557 34.3614 13.8374 34.2824 13.7586L29.7399 10.5668C29.5424 10.4486 29.6609 10.1727 29.8584 10.1727H37.1265C37.2055 10.0939 37.2845 10.0545 37.324 10.0151Z" fill="#E50E0F"/>
<path d="M94.1064 7.05088C95.1536 7.07649 95.8688 7.40943 96.2519 8.0497C96.6606 8.68997 96.6606 9.53512 96.2264 10.6108L93.9021 16.9622C93.3657 18.2428 92.344 19.0367 90.8115 19.344L91.8077 25.9004H86.163L85.5244 19.4977H82.4595L80.0075 25.9004H74.6948L77.1468 19.4977L79.9819 12.2499C80.0841 11.9681 80.0841 11.7376 79.9308 11.5584C79.8031 11.3791 79.5988 11.2766 79.3178 11.2766H77.7598L79.4711 7.02527H94.1064V7.05088ZM84.0686 15.2463H89.228L90.7605 11.3791H85.5755L84.0686 15.2463Z" fill="black"/>
<path d="M100.287 12.4548C100.39 12.1987 100.39 11.9682 100.236 11.7889C100.109 11.584 99.9042 11.5072 99.5977 11.5072H98.244L99.9808 7.0509H107.465L102.458 21.6234H106.647L112.317 7.0509H117.809L112.139 22.4686C111.219 24.8504 109.559 26.0284 107.158 26.0284H98.9336C97.6566 26.0284 96.8137 25.7211 96.3795 25.1321C95.9197 24.5174 95.9197 23.621 96.3795 22.4686L100.287 12.4548Z" fill="black"/>
<path d="M120.695 18.0635C119.392 17.8586 118.549 17.4744 118.115 16.9366C117.681 16.3732 117.63 15.5024 117.936 14.3755L119.265 10.5595C119.699 9.43268 120.388 8.56191 121.334 7.94725C122.253 7.3326 123.351 7.02527 124.577 7.02527H131.729C133.006 7.02527 133.849 7.3326 134.283 7.92164C134.717 8.5363 134.717 9.40707 134.258 10.5595L133.466 12.7108H128.179L128.689 11.3791H124.526L123.556 13.8377L128.562 14.7341C130.018 14.9902 130.963 15.4256 131.422 16.0659C131.857 16.6805 131.882 17.5513 131.474 18.6525L130.12 22.3661C129.2 24.7479 127.54 25.926 125.165 25.926H117.4C116.149 25.926 115.28 25.6186 114.846 25.0296C114.412 24.4149 114.412 23.5442 114.872 22.3917L115.612 20.4197H121.078L120.644 21.5465H124.807L125.778 19.1135L120.695 18.0635Z" fill="black"/>
<path d="M138.268 12.3779C138.37 12.1218 138.37 11.8913 138.216 11.6864C138.089 11.5072 137.884 11.4047 137.603 11.4047H136.071L137.782 7.0509H146.083L142.84 15.2719H147.565L150.808 7.0509H156.325L149.148 25.9516H143.401L145.853 19.6514H141.154L138.702 25.9516H132.98L138.268 12.3779Z" fill="black"/>
<path d="M76.2526 37.5824C75.6907 37.5055 75.3331 37.3263 75.1543 37.0958C74.9755 36.8397 74.95 36.4811 75.0777 36.0201L75.6396 34.381C75.8184 33.8944 76.1249 33.5359 76.5335 33.2542C76.9422 32.998 77.402 32.87 77.9128 32.87H80.9522C81.4886 32.87 81.8462 32.998 82.0505 33.2542C82.2293 33.5103 82.2293 33.8944 82.0505 34.381L81.7185 35.303H79.4708L79.7007 34.7396H77.9383L77.5297 35.7896L79.6752 36.1738C80.2882 36.2762 80.6968 36.4811 80.9012 36.7372C81.0799 36.9933 81.1055 37.3775 80.9267 37.8385L80.3392 39.4263C79.9306 40.4252 79.241 40.9374 78.2193 40.9374H74.8989C74.3625 40.9374 74.0049 40.8093 73.8006 40.5532C73.6218 40.2971 73.6218 39.9129 73.8006 39.4263L74.1326 38.5812H76.4569L76.2781 39.0678H78.0405L78.4492 38.0177L76.2526 37.5824Z" fill="black"/>
<path d="M89.6873 32.8956C90.1215 32.9212 90.428 33.0493 90.6068 33.331C90.7856 33.6127 90.7856 33.9713 90.6068 34.4067L89.6106 37.1214C89.3041 37.8641 88.5634 38.2227 87.3885 38.2227H84.7833L83.7361 40.963H81.4629L82.5101 38.2227L83.7361 35.1238C83.7872 34.9957 83.7616 34.9189 83.7105 34.842C83.6595 34.7652 83.5573 34.714 83.4296 34.714H82.7655L83.5062 32.8956H89.6873ZM88.2059 34.7652H86.1115L85.4729 36.4043H87.5418L88.2059 34.7652Z" fill="black"/>
<path d="M97.7077 32.8956C98.2441 32.8956 98.6272 33.0237 98.8315 33.2798C99.0359 33.5359 99.0359 33.9201 98.8571 34.4067L96.9925 39.4264C96.6094 40.4508 95.8943 40.9374 94.8981 40.9374H91.1946C90.6583 40.9374 90.3007 40.8093 90.1219 40.5532C89.9431 40.2971 89.9431 39.913 90.1219 39.4264L92.0886 34.4067C92.2674 33.9201 92.5739 33.5615 92.9825 33.2798C93.3912 33.0237 93.8509 32.8956 94.3618 32.8956H97.7077ZM92.6505 39.0678H94.6427L96.3285 34.7652H94.3362L92.6505 39.0678Z" fill="black"/>
<path d="M106.468 32.8956C106.903 32.9212 107.209 33.0493 107.388 33.331C107.567 33.6127 107.567 33.9713 107.388 34.4067L106.392 37.1214C106.162 37.6592 105.728 38.0178 105.064 38.1458L105.472 40.9374H103.071L102.79 38.2227H101.513L100.466 40.9374H98.1929L99.2401 38.2227L100.441 35.1238C100.492 34.9957 100.492 34.9189 100.415 34.842C100.338 34.7652 100.262 34.714 100.16 34.714H99.4955L100.211 32.8956H106.468ZM102.177 36.4043H104.374L105.038 34.7652H102.816L102.177 36.4043Z" fill="black"/>
<path d="M115.485 32.8956L114.769 34.7652H112.982C112.675 34.7652 112.496 34.8933 112.369 35.175L111.143 38.2739L110.095 40.9374H107.899L108.946 38.2739L110.146 35.175C110.197 35.0725 110.197 34.9701 110.146 34.8933C110.095 34.8164 109.993 34.7652 109.865 34.7652H107.848L108.563 32.8956H115.485Z" fill="black"/>
<path d="M124.833 38.1202L124.347 39.4264C123.939 40.4508 123.249 40.963 122.228 40.963H118.728C118.192 40.963 117.834 40.835 117.656 40.5788C117.477 40.3227 117.477 39.9386 117.656 39.452L119.622 34.4067C119.801 33.9201 120.108 33.5615 120.516 33.2798C120.925 33.0237 121.385 32.8956 121.895 32.8956H125.088C125.625 32.8956 126.008 33.0237 126.212 33.2798C126.416 33.5359 126.416 33.9201 126.238 34.4067L125.727 35.764H123.402L123.786 34.8164H121.921L120.235 39.0934H122.176L122.585 38.1458H124.833V38.1202Z" fill="black"/>
<path d="M131.065 32.8956L128.792 39.0678H132.418L131.703 40.9374H125.727L127.974 35.175C128.025 35.0725 128 34.9701 127.949 34.8933C127.898 34.8164 127.795 34.7652 127.668 34.7652H127.106L127.821 32.8956H131.065Z" fill="black"/>
<path d="M134.717 35.2006C134.768 35.0982 134.768 34.9957 134.692 34.9189C134.64 34.842 134.538 34.7908 134.411 34.7908H133.849L134.589 32.8956H137.782L135.662 39.0934H137.45L139.877 32.8956H142.226L139.8 39.452C139.391 40.4764 138.702 40.963 137.68 40.963H134.181C133.644 40.963 133.287 40.835 133.082 40.5788C132.878 40.3227 132.878 39.9386 133.082 39.452L134.717 35.2006Z" fill="black"/>
<path d="M141.613 40.963L143.861 35.175C143.912 35.0469 143.912 34.9701 143.835 34.8933C143.784 34.8164 143.682 34.7652 143.58 34.7652H143.018L143.759 32.8956H149.531C150.068 32.8956 150.451 33.0237 150.655 33.2798C150.859 33.5359 150.859 33.9201 150.681 34.4067L150.093 35.9689C149.991 36.3019 149.71 36.5836 149.25 36.8141C149.429 36.9421 149.531 37.0702 149.582 37.1726C149.659 37.3519 149.633 37.608 149.531 37.9409L148.969 39.452C148.586 40.4508 147.845 40.963 146.798 40.963H141.613ZM145.138 37.8641L144.678 39.0678H146.594L147.054 37.8641H145.138ZM147.794 35.9689L148.254 34.7908H146.287L145.828 35.9433L147.794 35.9689Z" fill="black"/>
</svg>
